<svg width="1107" height="156" viewBox="0 0 1107 156" fill="none" xmlns="http://www.w3.org/2000/svg">
<path d="M86.05 10.25V33.65H57.85V116H28.45V33.65H0.55V10.25H86.05Z" fill="#7B61FF"/>
<path d="M155.842 11.75V116H138.742V11.75H155.842ZM219.993 32C226.493 32 232.293 33.35 237.393 36.05C242.593 38.75 246.643 42.75 249.543 48.05C252.443 53.35 253.893 59.75 253.893 67.25V116H236.943V69.8C236.943 62.4 235.093 56.75 231.393 52.85C227.693 48.85 222.643 46.85 216.243 46.85C209.843 46.85 204.743 48.85 200.943 52.85C197.243 56.75 195.393 62.4 195.393 69.8V116H178.293V33.35H195.393V42.8C198.193 39.4 201.743 36.75 206.043 34.85C210.443 32.95 215.093 32 219.993 32ZM310.355 47.3H295.055V116H277.805V47.3H268.055V33.35H277.805V27.5C277.805 18 280.305 11.1 285.305 6.79999C290.405 2.4 298.355 0.199998 309.155 0.199998V14.45C303.955 14.45 300.305 15.45 298.205 17.45C296.105 19.35 295.055 22.7 295.055 27.5V33.35H310.355V47.3ZM361.36 117.35C353.56 117.35 346.51 115.6 340.21 112.1C333.91 108.5 328.96 103.5 325.36 97.1C321.76 90.6 319.96 83.1 319.96 74.6C319.96 66.2 321.81 58.75 325.51 52.25C329.21 45.75 334.26 40.75 340.66 37.25C347.06 33.75 354.21 32 362.11 32C370.01 32 377.16 33.75 383.56 37.25C389.96 40.75 395.01 45.75 398.71 52.25C402.41 58.75 404.26 66.2 404.26 74.6C404.26 83 402.36 90.45 398.56 96.95C394.76 103.45 389.56 108.5 382.96 112.1C376.46 115.6 369.26 117.35 361.36 117.35ZM361.36 102.5C365.76 102.5 369.86 101.45 373.66 99.35C377.56 97.25 380.71 94.1 383.11 89.9C385.51 85.7 386.71 80.6 386.71 74.6C386.71 68.6 385.56 63.55 383.26 59.45C380.96 55.25 377.91 52.1 374.11 50C370.31 47.9 366.21 46.85 361.81 46.85C357.41 46.85 353.31 47.9 349.51 50C345.81 52.1 342.86 55.25 340.66 59.45C338.46 63.55 337.36 68.6 337.36 74.6C337.36 83.5 339.61 90.4 344.11 95.3C348.71 100.1 354.46 102.5 361.36 102.5ZM438.264 45.35C440.764 41.15 444.064 37.9 448.164 35.6C452.364 33.2 457.314 32 463.014 32V49.7H458.664C451.964 49.7 446.864 51.4 443.364 54.8C439.964 58.2 438.264 64.1 438.264 72.5V116H421.164V33.35H438.264V45.35ZM578.782 32C585.282 32 591.082 33.35 596.182 36.05C601.382 38.75 605.432 42.75 608.332 48.05C611.332 53.35 612.832 59.75 612.832 67.25V116H595.882V69.8C595.882 62.4 594.032 56.75 590.332 52.85C586.632 48.85 581.582 46.85 575.182 46.85C568.782 46.85 563.682 48.85 559.882 52.85C556.182 56.75 554.332 62.4 554.332 69.8V116H537.382V69.8C537.382 62.4 535.532 56.75 531.832 52.85C528.132 48.85 523.082 46.85 516.682 46.85C510.282 46.85 505.182 48.85 501.382 52.85C497.682 56.75 495.832 62.4 495.832 69.8V116H478.732V33.35H495.832V42.8C498.632 39.4 502.182 36.75 506.482 34.85C510.782 32.95 515.382 32 520.282 32C526.882 32 532.782 33.4 537.982 36.2C543.182 39 547.182 43.05 549.982 48.35C552.482 43.35 556.382 39.4 561.682 36.5C566.982 33.5 572.682 32 578.782 32ZM628.892 74.3C628.892 66 630.592 58.65 633.992 52.25C637.492 45.85 642.192 40.9 648.092 37.4C654.092 33.8 660.692 32 667.892 32C674.392 32 680.042 33.3 684.842 35.9C689.742 38.4 693.642 41.55 696.542 45.35V33.35H713.792V116H696.542V103.7C693.642 107.6 689.692 110.85 684.692 113.45C679.692 116.05 673.992 117.35 667.592 117.35C660.492 117.35 653.992 115.55 648.092 111.95C642.192 108.25 637.492 103.15 633.992 96.65C630.592 90.05 628.892 82.6 628.892 74.3ZM696.542 74.6C696.542 68.9 695.342 63.95 692.942 59.75C690.642 55.55 687.592 52.35 683.792 50.15C679.992 47.95 675.892 46.85 671.492 46.85C667.092 46.85 662.992 47.95 659.192 50.15C655.392 52.25 652.292 55.4 649.892 59.6C647.592 63.7 646.442 68.6 646.442 74.3C646.442 80 647.592 85 649.892 89.3C652.292 93.6 655.392 96.9 659.192 99.2C663.092 101.4 667.192 102.5 671.492 102.5C675.892 102.5 679.992 101.4 683.792 99.2C687.592 97 690.642 93.8 692.942 89.6C695.342 85.3 696.542 80.3 696.542 74.6ZM756.202 47.3V93.05C756.202 96.15 756.902 98.4 758.302 99.8C759.802 101.1 762.302 101.75 765.802 101.75H776.302V116H762.802C755.102 116 749.202 114.2 745.102 110.6C741.002 107 738.952 101.15 738.952 93.05V47.3H729.202V33.35H738.952V12.8H756.202V33.35H776.302V47.3H756.202ZM800.763 22.4C797.663 22.4 795.063 21.35 792.963 19.25C790.863 17.15 789.813 14.55 789.813 11.45C789.813 8.34999 790.863 5.74999 792.963 3.65C795.063 1.55 797.663 0.499994 800.763 0.499994C803.763 0.499994 806.313 1.55 808.413 3.65C810.513 5.74999 811.563 8.34999 811.563 11.45C811.563 14.55 810.513 17.15 808.413 19.25C806.313 21.35 803.763 22.4 800.763 22.4ZM809.163 33.35V116H792.063V33.35H809.163ZM825.913 74.3C825.913 66 827.613 58.65 831.013 52.25C834.513 45.85 839.213 40.9 845.113 37.4C851.113 33.8 857.763 32 865.063 32C871.463 32 877.113 33.3 882.013 35.9C887.013 38.5 890.863 41.65 893.563 45.35V33.35H910.813V155.3H893.563V104C890.863 107.7 886.963 110.85 881.863 113.45C876.763 116.05 870.963 117.35 864.463 117.35C857.363 117.35 850.863 115.55 844.963 111.95C839.163 108.25 834.513 103.15 831.013 96.65C827.613 90.05 825.913 82.6 825.913 74.3ZM893.563 74.6C893.563 68.9 892.363 63.95 889.963 59.75C887.663 55.55 884.613 52.35 880.813 50.15C877.013 47.95 872.913 46.85 868.513 46.85C864.113 46.85 860.013 47.95 856.213 50.15C852.413 52.25 849.313 55.4 846.913 59.6C844.613 63.7 843.463 68.6 843.463 74.3C843.463 80 844.613 85 846.913 89.3C849.313 93.6 852.413 96.9 856.213 99.2C860.113 101.4 864.213 102.5 868.513 102.5C872.913 102.5 877.013 101.4 880.813 99.2C884.613 97 887.663 93.8 889.963 89.6C892.363 85.3 893.563 80.3 893.563 74.6ZM1008.12 33.35V116H991.023V106.25C988.323 109.65 984.773 112.35 980.373 114.35C976.073 116.25 971.473 117.2 966.573 117.2C960.073 117.2 954.223 115.85 949.023 113.15C943.923 110.45 939.873 106.45 936.873 101.15C933.973 95.85 932.523 89.45 932.523 81.95V33.35H949.473V79.4C949.473 86.8 951.323 92.5 955.023 96.5C958.723 100.4 963.773 102.35 970.173 102.35C976.573 102.35 981.623 100.4 985.323 96.5C989.123 92.5 991.023 86.8 991.023 79.4V33.35H1008.12ZM1106.44 72.65C1106.44 75.75 1106.24 78.55 1105.84 81.05H1042.69C1043.19 87.65 1045.64 92.95 1050.04 96.95C1054.44 100.95 1059.84 102.95 1066.24 102.95C1075.44 102.95 1081.94 99.1 1085.74 91.4H1104.19C1101.69 99 1097.14 105.25 1090.54 110.15C1084.04 114.95 1075.94 117.35 1066.24 117.35C1058.34 117.35 1051.24 115.6 1044.94 112.1C1038.74 108.5 1033.84 103.5 1030.24 97.1C1026.74 90.6 1024.99 83.1 1024.99 74.6C1024.99 66.1 1026.69 58.65 1030.09 52.25C1033.59 45.75 1038.44 40.75 1044.64 37.25C1050.94 33.75 1058.14 32 1066.24 32C1074.04 32 1080.99 33.7 1087.09 37.1C1093.19 40.5 1097.94 45.3 1101.34 51.5C1104.74 57.6 1106.44 64.65 1106.44 72.65ZM1088.59 67.25C1088.49 60.95 1086.24 55.9 1081.84 52.1C1077.44 48.3 1071.99 46.4 1065.49 46.4C1059.59 46.4 1054.54 48.3 1050.34 52.1C1046.14 55.8 1043.64 60.85 1042.84 67.25H1088.59Z" fill="black"/>
</svg>
